# xmcd
#
# Track frame offsets: 
#        150
#        22246
#        42864
#        75266
#        94471
#        122078
#        143970
#        174810
#        224444
#        249193
#        269520
#        289470
#
# Disc length: 4121 seconds
#
# Revision: 2
# Processed by: cddbd v1.5.2PL0 Copyright (c) Steve Scherf et al.
# Submitted via: ExactAudioCopy v0.99pb5
#
DISCID=ae10170c
DTITLE=Chris Duarte - 396 [Shrapnel]
DYEAR=2009
DGENRE=Blues
TTITLE0=Back In Town
TTITLE1=Put Up Or Shut Up
TTITLE2=Chattahoochee Side
TTITLE3=396
TTITLE4=Give It Back To Me
TTITLE5=Silverspoon
TTITLE6=Funky Mama
TTITLE7=Mad As I Can Be
TTITLE8=Angela
TTITLE9=Still I Think Of You
TTITLE10=The Ballad Of Kohima Ridge
TTITLE11=H2K3
EXTD=
EXTT0=
EXTT1=
EXTT2=
EXTT3=
EXTT4=
EXTT5=
EXTT6=
EXTT7=
EXTT8=
EXTT9=
EXTT10=
EXTT11=
PLAYORDER=
